<svg width="40" height="66" viewBox="0 0 40 66" fill="none" xmlns="http://www.w3.org/2000/svg">
<path d="M29.6588 46.2846C29.6588 46.2846 27.6098 46.4215 28.2928 47.654C28.8392 48.8864 37.5815 56.5549 38.1279 58.7459C38.6743 60.9368 39.6304 61.6215 36.7619 64.3603C33.8933 67.099 31.7078 66.4143 26.9268 61.6215C22.2825 56.6918 19.9603 54.6377 19.9603 54.6377C19.9603 54.6377 17.6382 56.6918 12.9938 61.6215C8.3495 66.5513 6.02734 67.099 3.15878 64.3603C0.29022 61.6215 1.24641 61.0738 1.7928 58.7459C2.33919 56.5549 11.0815 48.7495 11.6279 47.654C12.1742 46.4215 10.2619 46.2846 10.2619 46.2846C-3.12473 44.7783 0.426818 36.5621 0.426818 36.5621C3.70517 31.4954 8.89589 35.1927 8.89589 35.1927C14.2232 38.89 20.0969 37.9315 20.0969 37.9315C20.0969 37.9315 25.9706 38.89 31.298 35.1927C31.298 35.1927 36.3521 31.4954 39.7671 36.5621C39.4939 36.5621 43.0454 44.7783 29.6588 46.2846ZM19.8237 32.8648C10.8083 32.8648 3.43197 25.4702 3.43197 16.4324C3.43197 7.39458 10.8083 0 19.8237 0C28.8392 0 36.2155 7.39458 36.2155 16.4324C36.2155 25.4702 28.8392 32.8648 19.8237 32.8648ZM19.8237 9.58557C15.999 9.58557 12.9938 12.5982 12.9938 16.4324C12.9938 20.2666 15.999 23.2792 19.8237 23.2792C23.6485 23.2792 26.6536 20.2666 26.6536 16.4324C26.6536 12.5982 23.6485 9.58557 19.8237 9.58557Z" fill="white"/>
</svg>
