<svg width="66" height="54" viewBox="0 0 66 54" fill="none" xmlns="http://www.w3.org/2000/svg">
<path d="M59.4 9.2185L66 7.90157C66 7.90157 60.456 14.0911 59.4 14.4862C59.268 17.5151 59.4 18.437 59.4 18.437C46.728 72.6944 0 48.7263 0 48.7263C17.028 49.1214 18.48 42.1417 18.48 42.1417C8.58 40.6931 6.6 34.2401 6.6 34.2401C10.032 35.8204 11.88 32.9232 11.88 32.9232C1.188 30.1576 2.64 19.7539 2.64 19.7539C4.488 21.3342 7.39199 21.9927 9.10799 22.2561C7.91999 20.8075 -2.112 8.82342 3.96 2.63386C3.96 2.63386 11.352 15.8031 30.756 16.9884L32.076 16.725C31.812 15.8031 31.812 14.8813 31.812 13.8277C31.812 6.18956 38.016 0 45.672 0C54.912 0 56.892 5.26771 56.892 5.26771L63.492 1.31693C63.36 1.31693 62.7 7.90157 59.4 9.2185Z" fill="white"/>
</svg>
