<svg width="67" height="39" viewBox="0 0 67 39" fill="none" xmlns="http://www.w3.org/2000/svg">
<path d="M66.6447 34.9076C66.5635 34.7327 66.4879 34.5877 66.4177 34.4715C65.2552 32.3779 63.0338 29.8082 59.7548 26.7616L59.6855 26.6918L59.6508 26.6576L59.6157 26.6225H59.5806C58.0924 25.2038 57.15 24.25 56.7553 23.7616C56.0332 22.8313 55.8715 21.8896 56.2661 20.9355C56.5449 20.2146 57.5923 18.6922 59.4057 16.3662C60.3596 15.1335 61.115 14.1456 61.6729 13.4012C65.6965 8.05208 67.4409 4.6339 66.9058 3.14535L66.6979 2.79749C66.5583 2.58807 66.1979 2.39649 65.6171 2.22177C65.035 2.04741 64.2911 2.01858 63.3839 2.13478L53.3375 2.20417C53.1748 2.1465 52.9424 2.15188 52.6396 2.22177C52.3372 2.29166 52.1859 2.32672 52.1859 2.32672L52.0111 2.41408L51.8723 2.51904C51.756 2.58844 51.6281 2.7105 51.4884 2.88498C51.3495 3.05884 51.2333 3.26289 51.1404 3.4954C50.0466 6.30939 48.8031 8.92569 47.4074 11.3442C46.5468 12.7863 45.7566 14.0361 45.0348 15.0943C44.3141 16.1522 43.7094 16.9316 43.2214 17.4312C42.7327 17.9313 42.2916 18.3319 41.8955 18.6346C41.5 18.9373 41.198 19.0653 40.989 19.0185C40.7794 18.9717 40.5821 18.9252 40.3953 18.8788C40.0699 18.6694 39.8082 18.3846 39.6109 18.0241C39.4127 17.6637 39.2793 17.21 39.2095 16.6635C39.1401 16.1166 39.0991 15.6462 39.0873 15.2507C39.0765 14.8557 39.0815 14.297 39.1051 13.5761C39.1292 12.8548 39.1401 12.3668 39.1401 12.111C39.1401 11.2271 39.1574 10.2679 39.1919 9.23298C39.2271 8.19809 39.2556 7.37812 39.2794 6.77405C39.3031 6.16937 39.3141 5.52962 39.3141 4.85517C39.3141 4.18072 39.2731 3.65179 39.1919 3.2679C39.1118 2.88449 38.9887 2.51232 38.8266 2.15151C38.6635 1.79107 38.4247 1.51225 38.1115 1.31432C37.7976 1.11663 37.4073 0.959744 36.9429 0.843181C35.7102 0.564238 34.1405 0.413343 32.2331 0.389884C27.9077 0.343454 25.1285 0.622763 23.8959 1.22745C23.4075 1.48293 22.9656 1.832 22.5704 2.27357C22.1517 2.7854 22.0933 3.06471 22.3956 3.11065C23.7912 3.3197 24.7791 3.8198 25.3606 4.61044L25.5701 5.0294C25.7331 5.33168 25.8959 5.86685 26.0588 6.63415C26.2214 7.40146 26.3263 8.25026 26.3725 9.18007C26.4886 10.878 26.4886 12.3315 26.3725 13.5407C26.2561 14.7503 26.1461 15.6919 26.0412 16.3664C25.9362 17.0408 25.7793 17.5873 25.5701 18.0058C25.3606 18.4244 25.2212 18.6803 25.1513 18.7731C25.0815 18.866 25.0234 18.9245 24.9772 18.9475C24.6749 19.0633 24.3605 19.1223 24.0352 19.1223C23.7093 19.1223 23.3142 18.9593 22.8491 18.6336C22.3842 18.3079 21.9017 17.8604 21.4016 17.2906C20.9015 16.7206 20.3376 15.9241 19.7094 14.9009C19.0818 13.8778 18.4305 12.6685 17.7561 11.2732L17.1981 10.2613C16.8492 9.61028 16.3727 8.66238 15.768 7.41844C15.163 6.17401 14.6282 4.97027 14.1633 3.80745C13.9775 3.31909 13.6983 2.94729 13.3262 2.69144L13.1516 2.58648C13.0355 2.49362 12.8492 2.39502 12.5936 2.28995C12.3376 2.18499 12.0705 2.10973 11.7912 2.06342L2.23301 2.13282C1.25628 2.13282 0.593564 2.35409 0.24461 2.79603L0.104955 3.00508C0.0351886 3.12152 0 3.30748 0 3.56346C0 3.81931 0.0697663 4.13332 0.209421 4.50512C1.60475 7.7845 3.12213 10.9472 4.76158 13.9937C6.40103 17.0402 7.82568 19.4942 9.03468 21.3536C10.2439 23.2143 11.4765 24.9705 12.7324 26.6212C13.9883 28.2725 14.8197 29.3307 15.2264 29.7956C15.6336 30.2614 15.9535 30.6096 16.186 30.8421L17.0583 31.6792C17.6164 32.2374 18.436 32.906 19.5175 33.6849C20.5991 34.4643 21.7967 35.2316 23.1106 35.9881C24.4248 36.7433 25.9537 37.3596 27.6981 37.8362C29.4422 38.3133 31.1398 38.5048 32.7911 38.4124H36.8029C37.6165 38.3421 38.2329 38.0863 38.6519 37.6447L38.7907 37.4699C38.884 37.3311 38.9714 37.1154 39.052 36.8253C39.1336 36.5346 39.1742 36.2143 39.1742 35.866C39.1504 34.8662 39.2265 33.9651 39.4005 33.1628C39.5744 32.3608 39.7725 31.7561 39.9942 31.3489C40.2157 30.942 40.4657 30.5987 40.7439 30.3204C41.0227 30.0414 41.2214 29.8724 41.3379 29.8143C41.4538 29.7558 41.5463 29.7161 41.616 29.6922C42.1742 29.5063 42.831 29.6864 43.5876 30.2334C44.3435 30.7799 45.0525 31.4547 45.7158 32.2567C46.3786 33.0595 47.175 33.9601 48.105 34.9599C49.0357 35.9601 49.8494 36.7036 50.5469 37.1927L51.2443 37.6113C51.71 37.8906 52.3147 38.1464 53.0591 38.3789C53.802 38.6113 54.453 38.6695 55.012 38.5533L63.942 38.414C64.8252 38.414 65.5125 38.2677 66 37.9776C66.4885 37.6869 66.7787 37.3666 66.8723 37.0183C66.9656 36.6696 66.9707 36.274 66.89 35.8317C66.8073 35.3905 66.7258 35.0819 66.6447 34.9076Z" fill="white"/>
</svg>
